<svg width="396" height="273" viewBox="0 0 396 273" fill="none" xmlns="http://www.w3.org/2000/svg">
<g clip-path="url(#clip0)">
<path opacity="0.1" d="M275.18 82.3638C275.48 81.9365 275.645 81.4293 275.655 80.9073C275.655 77.7447 269.212 75.1855 261.264 75.1855C253.316 75.1855 246.873 77.7447 246.873 80.9073C246.887 81.4987 247.095 82.0689 247.466 82.5302C238.616 83.5185 232.655 85.3703 232.655 87.496C232.655 90.6551 245.832 93.2178 262.131 93.2178C278.429 93.2178 291.606 90.6551 291.606 87.496C291.589 85.2593 284.889 83.3001 275.18 82.3638Z" fill="#304FFE"/>
<g opacity="0.2">
<path opacity="0.2" d="M315.596 248.197C315.471 249.1 315.422 250.012 315.447 250.923C321.49 251.02 327.56 251.224 333.656 251.533C333.698 251.297 333.739 251.051 333.774 250.805C334.164 248.264 333.871 245.664 332.924 243.273C331.669 240.211 329.328 238.023 326.398 237.603C323.468 237.184 320.61 238.623 318.547 241.192C316.956 243.222 315.937 245.641 315.596 248.197Z" fill="#3F3D56"/>
<path opacity="0.2" d="M335.882 236.279C336.826 229.708 333.522 223.797 328.503 223.075C323.483 222.354 318.648 227.095 317.703 233.666C316.759 240.236 320.063 246.147 325.082 246.869C330.102 247.591 334.937 242.849 335.882 236.279Z" fill="#3F3D56"/>
<path opacity="0.2" d="M337.971 221.741C338.915 215.17 335.612 209.259 330.592 208.537C325.572 207.816 320.737 212.557 319.793 219.127C318.848 225.698 322.152 231.609 327.172 232.331C332.191 233.053 337.026 228.311 337.971 221.741Z" fill="#3F3D56"/>
<path opacity="0.2" d="M340.059 207.199C341.004 200.628 337.7 194.717 332.68 193.995C327.661 193.274 322.826 198.015 321.881 204.586C320.937 211.156 324.24 217.067 329.26 217.789C334.28 218.511 339.115 213.769 340.059 207.199Z" fill="#3F3D56"/>
<path opacity="0.2" d="M342.149 192.657C343.094 186.086 339.79 180.175 334.77 179.453C329.75 178.732 324.915 183.473 323.971 190.044C323.026 196.614 326.33 202.525 331.35 203.247C336.37 203.969 341.205 199.227 342.149 192.657Z" fill="#3F3D56"/>
<path opacity="0.2" d="M381.365 96.7263C382.834 95.3189 384.204 93.8127 385.467 92.2183L362.15 84.877L387.95 88.7817C391.203 83.7453 393.395 78.098 394.39 72.1855C395.385 66.2729 395.163 60.2195 393.738 54.3956L356.508 67.3892L391.834 48.5004C389.583 42.8984 386.202 37.8198 381.902 33.5811C377.603 29.3424 372.477 26.0343 366.843 23.8629C361.21 21.6915 355.189 20.7032 349.157 20.9596C343.125 21.216 337.21 22.7117 331.781 25.3534C326.352 27.9951 321.525 31.7263 317.601 36.3146C313.677 40.9029 310.739 46.25 308.972 52.0229C307.204 57.7959 306.643 63.871 307.325 69.8699C308.007 75.8688 309.917 81.6631 312.936 86.8918C310.648 89.0746 308.602 91.4975 306.833 94.1186L335.518 114.675L304.062 98.8347C300.755 105.361 299.128 112.608 299.328 119.921C299.528 127.235 301.548 134.382 305.206 140.718C299.233 146.413 294.983 153.674 292.942 161.671C290.9 169.668 291.15 178.077 293.663 185.939C296.176 193.8 300.851 200.796 307.152 206.125C313.454 211.455 321.128 214.904 329.297 216.079C337.466 217.253 345.801 216.104 353.348 212.765C360.896 209.425 367.351 204.029 371.976 197.194C376.601 190.358 379.21 182.359 379.503 174.111C379.797 165.863 377.763 157.699 373.635 150.553C380.772 143.746 385.414 134.739 386.817 124.978C388.219 115.216 386.3 105.266 381.368 96.7263H381.365Z" fill="#304FFE"/>
<path opacity="0.1" d="M299.755 112.466C298.336 122.228 300.256 132.184 305.203 140.718C299.23 146.413 294.979 153.674 292.938 161.671C290.897 169.668 291.147 178.077 293.66 185.939C296.173 193.8 300.847 200.795 307.149 206.125C313.45 211.455 321.124 214.904 329.294 216.078C337.463 217.252 345.798 216.104 353.345 212.764C360.892 209.425 367.348 204.029 371.973 197.194C376.598 190.358 379.206 182.359 379.5 174.111C379.793 165.863 377.76 157.699 373.632 150.552C380.529 143.985 300.456 107.58 299.755 112.466Z" fill="black"/>
</g>
<g opacity="0.2">
<path opacity="0.2" d="M57.7284 235.343C57.8654 236.126 58.0684 236.896 58.3353 237.645C63.2618 236.059 68.2391 234.557 73.2674 233.137C73.2396 232.929 73.2084 232.714 73.1703 232.499C72.8142 230.291 71.8838 228.215 70.4724 226.479C68.6379 224.284 66.155 223.112 63.6652 223.573C61.1754 224.034 59.2404 226.001 58.252 228.719C57.5039 230.844 57.3234 233.127 57.7284 235.343Z" fill="#3F3D56"/>
<path opacity="0.2" d="M64.9269 231.64C69.2096 230.962 71.9465 225.768 71.04 220.038C70.1335 214.308 65.9269 210.213 61.6442 210.89C57.3615 211.568 54.6245 216.762 55.531 222.492C56.4375 228.222 60.6442 232.317 64.9269 231.64Z" fill="#3F3D56"/>
<path opacity="0.2" d="M63.7968 219.266C68.0894 218.572 70.8168 213.354 69.8886 207.611C68.9604 201.868 64.7282 197.775 60.4355 198.468C56.1429 199.162 53.4155 204.38 54.3437 210.123C55.2719 215.866 59.5041 219.96 63.7968 219.266Z" fill="#3F3D56"/>
<path opacity="0.2" d="M60.5558 206.344C64.8385 205.666 67.5754 200.472 66.6689 194.742C65.7625 189.013 61.5558 184.917 57.2731 185.594C52.9904 186.272 50.2534 191.466 51.1599 197.196C52.0664 202.926 56.2731 207.022 60.5558 206.344Z" fill="#3F3D56"/>
<path opacity="0.2" d="M58.3746 193.695C62.6573 193.017 65.3943 187.823 64.4878 182.093C63.5813 176.363 59.3746 172.268 55.0919 172.945C50.8092 173.623 48.0723 178.817 48.9787 184.547C49.8852 190.276 54.0919 194.372 58.3746 193.695Z" fill="#3F3D56"/>
<path opacity="0.2" d="M70.6837 91.4516C71.501 89.8832 72.2112 88.2612 72.8094 86.5968L51.9336 86.9228L73.9052 83.0493C75.2837 77.6711 75.5059 72.0618 74.5572 66.5914C73.7295 61.7503 71.9903 57.1104 69.4318 52.9181L42.6921 73.9708L66.3144 48.5418C57.964 38.4195 44.7103 33.0202 31.0335 35.5378C10.5912 39.2899 -3.02661 59.2918 0.583308 80.2023C2.00817 88.6493 6.21696 96.3772 12.5401 102.157C11.2616 104.602 10.2468 107.177 9.51274 109.838L38.2673 118.996L8.51057 114.519C7.89072 118.668 7.93989 122.89 8.65621 127.024C10.0811 135.471 14.2899 143.199 20.613 148.978C16.6212 156.615 15.2597 165.356 16.7395 173.845C20.3494 194.759 39.8347 208.661 60.2631 204.899C80.6916 201.136 94.3233 181.138 90.7134 160.224C89.287 151.778 85.0784 144.052 78.7566 138.273C82.7477 130.634 84.1091 121.893 82.6301 113.402C81.2065 104.958 77.0017 97.2321 70.6837 91.4516Z" fill="#304FFE"/>
<path opacity="0.1" d="M8.66701 127.024C10.0919 135.471 14.3007 143.199 20.6238 148.978C16.632 156.615 15.2705 165.356 16.7503 173.845C20.3602 194.759 39.8455 208.661 60.2739 204.899C80.7024 201.136 94.3341 181.138 90.7242 160.224C89.2978 151.778 85.0892 144.052 78.7674 138.273C82.6131 130.915 7.93185 122.776 8.66701 127.024Z" fill="black"/>
</g>
<path d="M39.4844 206.438C39.4844 224.578 50.862 239.254 64.9237 239.254L39.4844 206.438Z" fill="#46455B"/>
<path d="M64.9243 239.254C64.9243 220.913 77.6232 206.071 93.3182 206.071L64.9243 239.254Z" fill="#304FFE"/>
<path d="M48.7017 208.084C48.7017 225.315 55.9562 239.256 64.9238 239.256L48.7017 208.084Z" fill="#304FFE"/>
<path d="M64.9243 239.254C64.9243 215.819 79.6033 196.854 97.743 196.854L64.9243 239.254Z" fill="#46455B"/>
<path opacity="0.1" d="M183.049 258.854C280.914 258.854 360.25 256.216 360.25 252.962C360.25 249.708 280.914 247.07 183.049 247.07C85.183 247.07 5.84717 249.708 5.84717 252.962C5.84717 256.216 85.183 258.854 183.049 258.854Z" fill="#304FFE"/>
<path opacity="0.1" d="M61.987 243.911C65.5646 243.911 68.4648 243.421 68.4648 242.816C68.4648 242.21 65.5646 241.72 61.987 241.72C58.4095 241.72 55.5093 242.21 55.5093 242.816C55.5093 243.421 58.4095 243.911 61.987 243.911Z" fill="#304FFE"/>
<path d="M57.6353 237.725C57.6353 237.725 61.3319 237.614 62.445 236.82C63.5582 236.026 68.1252 235.086 68.4026 236.352C68.68 237.618 73.951 242.677 69.7897 242.708C65.6284 242.739 60.1008 242.06 58.9877 241.383C57.8745 240.707 57.6353 237.725 57.6353 237.725Z" fill="#A8A8A8"/>
<path opacity="0.2" d="M69.859 242.268C65.6978 242.299 60.1667 241.616 59.057 240.94C58.2109 240.427 57.8711 238.575 57.7601 237.722H57.6353C57.6353 237.722 57.8711 240.704 58.9807 241.38C60.0904 242.056 65.6145 242.74 69.7828 242.705C70.9861 242.705 71.4022 242.268 71.3814 241.633C71.2149 242.022 70.7537 242.261 69.859 242.268Z" fill="black"/>
<path d="M238.422 69.6533C233.445 45.1294 212.119 26.6533 186.173 26.6533C165.557 26.6533 147.785 38.3812 138.897 55.4356C117.571 57.5682 100.867 75.6941 100.867 97.742C100.867 121.198 120.057 140.395 143.52 140.395H235.935C255.483 140.395 271.48 124.399 271.48 104.851C271.517 95.8689 268.111 87.2142 261.962 80.6671C255.813 74.1199 247.388 70.1784 238.422 69.6533ZM197.544 90.6158V117.63H174.795V90.6158H150.625L186.17 55.0888L221.714 90.6331L197.544 90.6158Z" fill="#304FFE"/>
<path d="M151.41 86.5594C151.063 84.5793 151.233 82.4467 150.325 80.6642C150.237 80.4539 150.094 80.2707 149.912 80.1337C149.686 80.0114 149.43 79.9527 149.173 79.9638C148.351 79.9325 147.533 79.9221 146.711 79.943C146.482 79.943 146.212 79.9776 146.094 80.1788C146.08 80.2001 146.069 80.2235 146.063 80.2481C145.123 79.2078 144.412 77.8935 143.399 76.9225C143.545 76.874 143.687 76.8289 143.836 76.7908C143.836 76.6902 143.802 76.5966 143.781 76.4995C143.781 76.4683 143.764 76.4405 143.757 76.4128C143.75 76.385 143.725 76.281 143.705 76.2151C143.684 76.1492 143.684 76.1492 143.67 76.118C143.652 76.0558 143.631 75.9944 143.607 75.9342C143.607 75.903 143.583 75.8718 143.569 75.8406L143.497 75.6568L143.455 75.5701C143.427 75.5077 143.399 75.4453 143.368 75.3863L143.327 75.31C143.295 75.2442 143.261 75.1783 143.226 75.1124L143.191 75.05C143.153 74.9806 143.112 74.9113 143.073 74.8384C143.063 74.8271 143.055 74.8142 143.049 74.8003C143.004 74.7205 142.956 74.6408 142.907 74.5645C142.512 73.9195 142.075 73.2849 141.752 72.6225C141.187 71.4574 141 70.1431 140.622 68.9017C140.244 67.6602 139.581 66.3979 138.458 65.805C137.913 65.5275 137.185 65.2813 137.133 64.6675C137.132 64.4703 137.173 64.275 137.255 64.0954C137.411 63.6977 137.6 63.3137 137.82 62.9475C137.903 62.8158 137.99 62.684 138.076 62.5522L138.146 62.4586C138.215 62.3615 138.288 62.2644 138.361 62.1742L138.451 62.0598C138.524 61.9696 138.6 61.8864 138.676 61.7997L138.77 61.6992C138.878 61.5847 138.985 61.4738 139.099 61.3524C139.205 61.2712 139.288 61.1652 139.342 61.0438C139.372 60.9236 139.378 60.7986 139.36 60.6762C139.304 59.6844 139.824 58.7585 140.4 57.9609C140.975 57.1634 141.655 56.4074 141.985 55.4746C142.023 55.3671 142.054 55.2596 142.082 55.1486C142.092 55.1132 142.1 55.0774 142.106 55.0411C142.123 54.9683 142.137 54.8955 142.151 54.8192L142.172 54.6943C142.172 54.625 142.189 54.5556 142.196 54.4897V54.3545V54.1499V54.0146C142.196 53.9488 142.196 53.8794 142.196 53.81C142.196 53.7407 142.196 53.7234 142.196 53.6783C142.196 53.6332 142.196 53.5326 142.179 53.4598V53.3419C142.179 53.2587 142.155 53.172 142.144 53.0888C142.144 53.061 142.144 53.0333 142.144 53.0055C142.128 52.8923 142.107 52.7767 142.082 52.6588C141.916 51.922 141.703 51.1969 141.444 50.4879C141.305 50.0525 141.129 49.6301 140.917 49.2257C141.045 49.2014 141.177 49.1737 141.305 49.139C141.203 48.9796 141.109 48.8153 141.024 48.6466C141.822 47.4709 142.421 46.1715 142.796 44.8009C142.995 43.8217 143.111 42.8276 143.143 41.829C143.334 38.8259 143.528 35.809 143.278 32.8129V32.695C143.372 32.0515 143.379 31.3984 143.299 30.753C143.219 29.4907 142.846 28.2643 142.21 27.1709C141.537 26.1097 140.428 25.1734 139.193 25.0486C138.989 25.2778 138.764 25.4868 138.52 25.6728C138.149 25.3464 137.876 24.9223 137.733 24.4487C139.175 24.2225 140.502 23.5292 141.511 22.4755C142.52 21.4218 143.156 20.0658 143.32 18.6159C143.32 18.5084 143.344 18.3975 143.351 18.29C143.351 18.2449 143.351 18.1998 143.351 18.1547C143.351 18.1096 143.351 18.0264 143.351 17.964C143.351 17.9016 143.351 17.8496 143.351 17.7906V17.6484C143.351 17.5826 143.351 17.5132 143.351 17.4473C143.351 17.3814 143.351 17.3745 143.351 17.3398C143.351 17.3051 143.351 17.1872 143.33 17.1144C143.332 17.0879 143.332 17.0612 143.33 17.0347L143.299 16.7919V16.7399C143.299 16.6532 143.271 16.5665 143.254 16.4798V16.4521C143.236 16.3584 143.216 16.2683 143.191 16.1747C143.036 15.5435 142.79 14.9383 142.46 14.3784C142.731 13.7657 142.909 13.1158 142.987 12.4503C142.987 12.3289 143.011 12.211 143.018 12.1035C143.025 11.996 143.018 11.9509 143.018 11.8747C143.018 11.7984 143.018 11.7984 143.018 11.7637C143.018 11.6631 143.018 11.5626 143.018 11.4655C143.016 11.4551 143.016 11.4446 143.018 11.4342C142.968 9.76775 142.302 8.17896 141.149 6.97473C141.281 6.75494 141.392 6.52264 141.478 6.28118C141.506 6.20836 141.53 6.13554 141.551 6.05925C141.572 5.98643 141.593 5.91707 141.61 5.84425V5.82691L141.652 5.62925C141.65 5.61777 141.65 5.60605 141.652 5.59457C141.652 5.51828 141.676 5.43852 141.686 5.35876C141.697 5.27901 141.686 5.19578 141.707 5.11602C141.707 5.09175 141.707 5.06401 141.707 5.03973C141.707 5.01546 141.707 4.9253 141.707 4.86981V4.78659C141.707 4.7311 141.707 4.67215 141.707 4.61667C141.707 4.56118 141.707 4.56812 141.707 4.54384C141.649 3.51363 141.204 2.54328 140.462 1.82621C139.72 1.10915 138.735 0.698052 137.704 0.674865C136.672 0.651678 135.67 1.01811 134.896 1.70111C134.123 2.38411 133.635 3.33351 133.53 4.36005C133.48 4.77921 133.493 5.20349 133.568 5.61884C132.56 6.11056 131.691 6.84717 131.041 7.76131C130.391 8.67545 129.981 9.73795 129.848 10.8517C129.804 11.2245 129.791 11.6003 129.809 11.9752C129.211 12.9141 128.854 13.9861 128.769 15.0962C128.769 15.1378 128.769 15.1794 128.769 15.221C128.769 15.3597 128.752 15.5019 128.752 15.6406C128.749 16.6677 128.981 17.6819 129.429 18.6057C129.878 19.5294 130.533 20.3383 131.342 20.9705C131.68 21.517 132.126 21.9889 132.653 22.3576C132.748 22.6401 132.819 22.9301 132.864 23.2246C132.903 23.6205 132.851 24.02 132.713 24.393C132.575 24.766 132.354 25.1028 132.067 25.378C131.918 25.5029 131.751 25.6069 131.595 25.7248C131.438 25.6798 131.271 25.6798 131.113 25.7248C129.324 26.2866 127.611 27.3997 126.789 29.1024C126.607 29.4897 126.463 29.8939 126.359 30.3092L126.262 30.4583C125.175 32.1592 124.393 34.0369 123.952 36.0067C123.727 37.0158 123.585 38.063 123.113 38.982C123 39.1738 122.908 39.3772 122.839 39.5888C122.799 39.912 122.785 40.2379 122.798 40.5633C122.749 41.1528 122.406 41.6764 122.291 42.2555C122.222 42.6023 122.236 42.9491 122.177 43.2959C122.012 43.8916 121.795 44.4718 121.528 45.0297C121.161 46.0492 121.164 47.1693 120.89 48.2201C120.857 48.3931 120.783 48.5559 120.675 48.6951C120.458 48.8642 120.215 48.9955 119.954 49.0835C119.763 49.2029 119.6 49.3614 119.475 49.5485C119.35 49.7356 119.267 49.9471 119.229 50.1689C119.157 50.6163 119.149 51.0717 119.205 51.5213L119.34 53.2795L117.371 53.8759L114.139 54.8642C113.192 55.1038 112.287 55.4861 111.455 55.9982C110.713 56.5147 110.128 57.2248 109.762 58.0511C109.435 58.9126 109.223 59.8142 109.135 60.7317C108.822 63.2986 108.266 65.8299 107.474 68.2913C107.408 68.4786 107.338 68.6693 107.269 68.8566L107.051 69.408C107.033 69.4461 107.016 69.4842 107.002 69.5224L106.815 69.9628C106.732 70.1501 106.645 70.3338 106.555 70.5176L114.125 73.0421C114.125 73.1323 114.142 73.2294 114.156 73.3369C114.42 75.1956 114.291 77.0821 114.534 78.9442C114.565 79.2538 114.636 79.558 114.745 79.8493C114.553 80.0158 114.415 80.2354 114.347 80.4804C114.261 80.8771 114.248 81.286 114.309 81.6872C114.395 82.6374 114.478 83.5875 114.565 84.5377C114.606 84.8833 114.606 85.2325 114.565 85.578C114.472 86.2057 114.111 86.7571 113.913 87.357C113.716 87.9569 113.726 88.7267 114.222 89.0908C114.395 89.2091 114.595 89.2811 114.804 89.3C115.013 89.3188 115.223 89.2838 115.415 89.1983C115.797 89.0226 116.135 88.7631 116.403 88.4389C117.925 86.7467 118.609 84.4614 119.791 82.5091C120.095 82.059 120.367 81.5873 120.603 81.0977C120.765 80.7197 120.87 80.3175 121.001 79.9256C121.183 79.4038 121.401 78.8951 121.653 78.4033C121.795 78.1224 122.347 77.4462 122.222 77.1341C122.028 76.5966 119.951 76.125 119.448 75.9585C119.127 75.8154 118.764 75.7993 118.432 75.9134C118.382 75.9373 118.335 75.9677 118.293 76.0036L118.116 73.7114C118.425 73.6837 118.73 73.6455 119.032 73.5935C119.032 73.1635 119.021 72.73 119 72.2931C119 71.8978 118.983 71.499 118.973 71.1002C118.952 70.1292 118.931 69.1583 118.907 68.2046C118.9 67.6425 118.865 67.0811 118.799 66.5228C118.681 65.6732 118.421 64.8409 118.338 63.9844C118.463 63.8852 118.611 63.8185 118.768 63.7902C119.011 63.7513 119.258 63.742 119.503 63.7625H119.697C120.774 63.7467 121.828 63.4554 122.759 62.9163C123.713 62.4205 124.597 61.7997 125.534 61.29L125.88 61.1062L126.012 61.0403L126.234 60.9293L126.418 60.8426L126.46 60.8218C127.011 60.5583 127.569 60.3017 128.103 60.0138C128.139 60.0726 128.179 60.1293 128.221 60.1838C128.351 60.36 128.529 60.4939 128.735 60.5686C128.94 60.6433 129.163 60.6554 129.376 60.6034C128.72 62.1812 127.951 63.707 127.756 65.4131C127.472 67.8787 128.45 70.268 129.424 72.5636L132.507 79.8459C132.854 80.6504 133.301 81.552 134.144 81.7427C134.68 81.8148 135.224 81.7062 135.691 81.4341C137.102 80.7613 138.371 79.7973 139.665 78.8957L139.717 78.9373C140.885 79.8597 141.617 81.1463 142.425 82.3773L144.585 85.9283C144.571 86.1062 144.6 86.285 144.672 86.4484C144.83 86.7425 145.035 87.0084 145.279 87.2356C146.652 88.7145 147.557 90.5665 147.88 92.5586C147.908 93.0687 148.055 93.5652 148.31 94.0081C148.889 94.8126 150.123 94.7606 150.994 94.3029C151.263 94.1799 151.495 93.9886 151.667 93.748C151.813 93.4895 151.905 93.204 151.937 92.9088C152.096 92.1746 152.183 91.4267 152.197 90.6756C152.183 89.3128 151.66 87.9569 151.41 86.5594ZM139.006 21.2202C139.157 21.1206 139.303 21.0129 139.443 20.8977C139.15 21.7781 138.678 22.5881 138.056 23.2766C137.91 23.4361 137.754 23.5852 137.594 23.7309V23.6199C137.577 23.2731 137.594 22.8882 137.594 22.5206C138.15 22.1902 138.631 21.7473 139.006 21.2202ZM126.761 48.5842L126.782 48.5183C126.905 48.6069 127.012 48.716 127.098 48.8408C127.014 49.027 126.974 49.2302 126.983 49.4343C126.991 49.6384 127.047 49.8377 127.146 50.0163C127.326 50.3215 127.652 50.6059 127.583 50.9561C127.514 51.3063 127.07 51.445 126.709 51.504C126.234 51.5803 125.766 51.667 125.298 51.7606C125.298 51.7606 125.298 51.7606 125.298 51.7363C125.308 51.3455 125.255 50.9556 125.142 50.5816C125.95 50.2348 126.449 49.4095 126.761 48.5842Z" fill="url(#paint0_linear)"/>
<path d="M141.194 8.21327C141.505 7.68653 141.695 7.09701 141.75 6.48762C141.804 5.87823 141.723 5.26429 141.51 4.69048C141.298 4.11667 140.96 3.59741 140.522 3.1705C140.084 2.74359 139.556 2.41976 138.977 2.22256C138.397 2.02537 137.782 1.95978 137.174 2.03057C136.566 2.10135 135.982 2.30673 135.463 2.63176C134.945 2.95679 134.506 3.3933 134.177 3.90951C133.849 4.42573 133.639 5.00868 133.565 5.61594C133.513 6.03038 133.526 6.45036 133.603 6.86085C132.424 7.41921 131.438 8.31466 130.769 9.43383C130.1 10.553 129.778 11.8456 129.844 13.1479C129.286 14.0114 128.938 14.993 128.826 16.0147C128.714 17.0364 128.841 18.0702 129.198 19.034C129.555 19.9979 130.131 20.8654 130.882 21.5676C131.633 22.2699 132.536 22.7876 133.522 23.0798C134.507 23.372 135.547 23.4306 136.559 23.2509C137.571 23.0712 138.527 22.6582 139.352 22.0447C140.177 21.4312 140.847 20.6339 141.31 19.7162C141.773 18.7985 142.016 17.7856 142.019 16.7578C142.019 16.6503 142.019 16.5463 142.019 16.4422C142.838 15.1825 143.205 13.6816 143.058 12.1861C142.911 10.6906 142.26 9.28956 141.211 8.21327H141.194Z" fill="#46455B"/>
<g opacity="0.1">
<path opacity="0.1" d="M133.554 5.81652L133.61 5.78531C133.596 5.71422 133.585 5.64246 133.578 5.57031C133.577 5.58529 133.577 5.60041 133.578 5.61539C133.567 5.68195 133.559 5.7491 133.554 5.81652Z" fill="black"/>
<path opacity="0.1" d="M143.024 12.5516C142.905 13.5575 142.555 14.5223 142.001 15.3709C142.001 15.4749 142.001 15.579 142.001 15.683C141.993 17.3861 141.329 19.0205 140.146 20.246C138.964 21.4716 137.354 22.1939 135.652 22.2627C133.951 22.3315 132.288 21.7415 131.01 20.6154C129.733 19.4893 128.938 17.9139 128.793 16.217C128.793 16.3974 128.769 16.5638 128.769 16.758C128.769 18.5128 129.466 20.1957 130.706 21.4365C131.947 22.6774 133.63 23.3745 135.385 23.3745C137.14 23.3745 138.823 22.6774 140.064 21.4365C141.304 20.1957 142.001 18.5128 142.001 16.758C142.001 16.6505 142.001 16.5465 142.001 16.4424C142.556 15.5944 142.906 14.6294 143.024 13.6232C143.079 13.1802 143.087 12.7327 143.049 12.2881C143.059 12.3748 143.038 12.4649 143.024 12.5516Z" fill="black"/>
<path opacity="0.1" d="M141.738 5.56738C141.665 6.1237 141.48 6.65938 141.193 7.14174C141.311 7.25964 141.419 7.38448 141.54 7.50932C141.646 7.21675 141.718 6.91311 141.755 6.60424C141.795 6.25934 141.789 5.91077 141.738 5.56738Z" fill="black"/>
</g>
<path d="M114.534 79.1964C114.565 79.5728 114.668 79.9399 114.835 80.2783C114.92 80.4475 115.044 80.5939 115.196 80.7055C115.349 80.8171 115.526 80.8906 115.713 80.9199C116.056 80.922 116.392 80.8244 116.68 80.639C117.266 80.3303 117.88 79.9732 118.185 79.3836C118.49 78.7941 118.442 78.1353 118.39 77.4937L117.995 72.4482C117.044 72.4204 116.087 72.4204 115.134 72.4724C114.18 72.5245 114.024 72.7464 114.156 73.6688C114.416 75.4998 114.277 77.3619 114.534 79.1964Z" fill="#FBBEBE"/>
<path d="M142.49 82.6066L144.755 86.2685C144.853 86.4822 145.031 86.6489 145.251 86.7332C145.413 86.7576 145.578 86.7283 145.722 86.65C146.455 86.2659 147.099 85.7319 147.612 85.0826C148.023 84.7005 148.335 84.2245 148.521 83.6955C148.594 83.4021 148.591 83.0948 148.512 82.8028C148.433 82.5108 148.281 82.2439 148.07 82.0275C147.808 81.7943 147.523 81.5875 147.22 81.4102C145.428 80.2 144.62 77.9043 142.851 76.6629C142.752 76.5796 142.632 76.5255 142.504 76.5068C142.373 76.5161 142.246 76.5591 142.137 76.6317L139.709 77.9563C138.669 78.5285 138.991 78.5979 139.789 79.2151C140.951 80.1237 141.672 81.3929 142.49 82.6066Z" fill="#FBBEBE"/>
<path d="M119.454 76.2777C119.132 76.1379 118.769 76.1255 118.438 76.243C118.292 76.3321 118.167 76.4539 118.075 76.5988C117.983 76.7438 117.926 76.908 117.908 77.0787C117.845 77.4255 117.852 77.7723 117.759 78.0948C117.55 78.6321 117.21 79.1088 116.77 79.4819C116.605 79.6778 116.391 79.8272 116.15 79.9153C115.82 79.9986 115.473 79.846 115.14 79.9153C114.947 79.9659 114.771 80.0681 114.631 80.211C114.491 80.3539 114.393 80.5322 114.346 80.7268C114.259 81.1173 114.246 81.5209 114.308 81.9162L114.565 84.7251C114.607 85.0706 114.607 85.4199 114.565 85.7654C114.471 86.3861 114.111 86.9271 113.913 87.5201C113.715 88.1131 113.722 88.869 114.222 89.254C114.396 89.3702 114.597 89.4406 114.806 89.4588C115.015 89.477 115.226 89.4423 115.418 89.358C115.8 89.1861 116.138 88.93 116.406 88.609C117.932 86.9444 118.615 84.6869 119.801 82.7658C120.104 82.3234 120.376 81.8599 120.613 81.3787C120.776 81.0042 120.88 80.6089 121.011 80.224C121.194 79.7085 121.413 79.2067 121.667 78.7224C121.805 78.445 122.36 77.7792 122.235 77.4706C122.052 76.9088 119.968 76.4407 119.454 76.2777Z" fill="#46455B"/>
<path d="M146.992 84.0343C146.649 84.6823 146.074 85.1775 145.383 85.4214C145.184 85.4761 144.998 85.5717 144.838 85.7023C144.733 85.8302 144.668 85.9861 144.651 86.1507C144.634 86.3153 144.665 86.4813 144.741 86.6282C144.9 86.9191 145.107 87.1816 145.352 87.405C146.721 88.8563 147.627 90.683 147.952 92.6517C147.984 93.1562 148.132 93.6465 148.386 94.0838C148.965 94.878 150.203 94.8259 151.077 94.3717C151.344 94.25 151.575 94.0626 151.75 93.8272C151.896 93.5724 151.988 93.2903 152.02 92.9984C152.179 92.2748 152.266 91.5372 152.28 90.7964C152.28 89.4093 151.739 88.0604 151.49 86.6871C151.143 84.7348 151.309 82.6299 150.401 80.8683C150.315 80.6574 150.175 80.4731 149.995 80.3342C149.767 80.2142 149.511 80.1567 149.253 80.1678C148.434 80.1366 147.609 80.1296 146.787 80.147C146.558 80.147 146.288 80.1817 146.17 80.3793C146.129 80.4897 146.115 80.6085 146.131 80.7253C146.147 80.8421 146.191 80.9531 146.26 81.0486C146.763 82.0438 147.588 82.831 146.992 84.0343Z" fill="#46455B"/>
<path d="M127.482 49.0448C127.252 49.2348 127.097 49.4991 127.042 49.7918C126.988 50.0846 127.038 50.3871 127.183 50.6469C127.367 50.9486 127.693 51.2295 127.62 51.5762C127.548 51.923 127.107 52.0548 126.746 52.1137C123.563 52.62 120.463 53.5528 117.384 54.4822L114.145 55.4566C113.196 55.6907 112.289 56.0672 111.454 56.5732C110.714 57.0781 110.128 57.7778 109.761 58.5949C109.433 59.4431 109.22 60.3321 109.13 61.2374C108.645 64.5491 108.024 67.8885 106.547 70.8916L114.394 73.4681C115.156 73.7469 115.946 73.9445 116.749 74.0576C117.515 74.1229 118.285 74.0856 119.041 73.9466C118.993 72.1954 118.961 70.3887 118.913 68.6341C118.908 68.0799 118.872 67.5265 118.805 66.9765C118.687 66.1373 118.427 65.3189 118.344 64.4728C118.691 64.1745 119.235 64.2508 119.703 64.2612C120.781 64.2466 121.837 63.9617 122.776 63.4324C123.726 62.94 124.614 62.3297 125.55 61.8269C127.128 60.9912 128.924 60.4398 130.131 59.1116C129.517 61.4524 128.05 63.4914 127.783 65.8945C127.516 68.2977 128.477 70.6974 129.458 72.941L132.548 80.1123C132.895 80.9029 133.342 81.7941 134.185 81.9814C134.721 82.0514 135.265 81.9443 135.735 81.6762C138.578 80.3446 140.853 77.8374 143.891 77.0399C143.662 75.5349 142.476 74.2899 141.81 72.9271C141.242 71.7793 141.058 70.4824 140.68 69.2582C140.302 68.0341 139.64 66.7892 138.509 66.2066C137.965 65.9327 137.233 65.6899 137.184 65.0831C137.18 64.8878 137.221 64.6941 137.306 64.5178C137.711 63.4942 138.343 62.5755 139.154 61.8303C139.257 61.7485 139.34 61.6441 139.397 61.5252C139.423 61.4116 139.429 61.2941 139.414 61.1784C139.355 60.2005 139.879 59.2885 140.454 58.5013C141.03 57.7141 141.713 56.9686 142.043 56.0496C142.608 54.4649 142.043 52.7241 141.488 51.1393C141.306 50.4817 140.989 49.8689 140.558 49.3395C139.83 48.5628 138.7 48.3374 137.639 48.2195C134.223 47.8311 130.204 46.9329 127.482 49.0448Z" fill="#46455B"/>
<g opacity="0.1">
<path opacity="0.1" d="M140.465 55.9849C139.882 56.7721 139.359 57.6841 139.424 58.662C139.44 58.7777 139.434 58.8951 139.407 59.0087C139.35 59.1276 139.267 59.232 139.164 59.3139C138.354 60.059 137.722 60.9777 137.316 62.0014C137.232 62.1777 137.19 62.3713 137.195 62.5666C137.231 62.7502 137.313 62.9214 137.435 63.0635C137.556 63.2057 137.712 63.3141 137.888 63.3781C138.241 62.8008 138.673 62.2756 139.171 61.8176C139.274 61.7357 139.357 61.6314 139.414 61.5125C139.441 61.3989 139.447 61.2814 139.431 61.1657C139.372 60.1878 139.896 59.2758 140.472 58.4886C141.047 57.7014 141.73 56.9558 142.06 56.0369C142.344 55.1377 142.373 54.1773 142.143 53.2627C142.12 53.3529 142.092 53.443 142.06 53.5332C141.724 54.4521 141.051 55.2012 140.465 55.9849Z" fill="black"/>
<path opacity="0.1" d="M127.124 49.5211C127.239 49.4978 127.346 49.444 127.433 49.3653C127.52 49.2866 127.585 49.1859 127.62 49.0737C127.627 49.0289 127.627 48.9833 127.62 48.9385L127.471 49.046C127.318 49.1733 127.199 49.3365 127.124 49.5211Z" fill="black"/>
<path opacity="0.1" d="M116.749 71.5558C115.946 71.4426 115.156 71.245 114.394 70.9662L107.459 68.6914C107.197 69.4431 106.89 70.1784 106.54 70.8934L114.394 73.47C115.156 73.7487 115.946 73.9463 116.749 74.0595C117.515 74.1248 118.286 74.0875 119.041 73.9485C119.017 73.1266 119 72.2909 118.979 71.4552C118.243 71.5856 117.494 71.6194 116.749 71.5558Z" fill="black"/>
<path opacity="0.1" d="M135.745 79.1732C135.276 79.4413 134.731 79.5484 134.195 79.4784C133.352 79.2911 132.898 78.3999 132.558 77.6093L129.469 70.438C128.775 68.8602 128.099 67.2199 127.849 65.5381C127.828 65.656 127.811 65.7739 127.794 65.8849C127.513 68.3123 128.487 70.6877 129.469 72.9313L132.558 80.1026C132.905 80.8932 133.352 81.7844 134.195 81.9717C134.731 82.0417 135.276 81.9346 135.745 81.6666C138.589 80.3349 140.864 77.8278 143.901 77.0302C143.743 76.2426 143.426 75.4956 142.969 74.8351C140.382 75.8511 138.291 77.9769 135.745 79.1732Z" fill="black"/>
<path opacity="0.1" d="M130.141 56.6094C128.935 57.9271 127.138 58.4889 125.56 59.3246C124.614 59.8274 123.726 60.4378 122.786 60.9302C121.848 61.4605 120.792 61.7466 119.714 61.7624C119.246 61.7624 118.719 61.6723 118.354 61.9705C118.431 62.7507 118.656 63.5102 118.784 64.2835C119.093 64.2419 119.404 64.2349 119.714 64.2627C120.791 64.2481 121.848 63.9631 122.786 63.4339C123.736 62.9415 124.624 62.3311 125.56 61.8283C126.601 61.277 127.735 60.847 128.733 60.2366C129.288 59.0625 129.759 57.8504 130.141 56.6094Z" fill="black"/>
</g>
<path d="M132.895 24.2267C132.933 24.6174 132.881 25.0116 132.743 25.379C132.604 25.7463 132.383 26.077 132.097 26.3455C131.906 26.5085 131.681 26.6299 131.497 26.7998C131.332 26.9689 131.206 27.172 131.127 27.395C131.048 27.6179 131.019 27.8554 131.042 28.0908C131.064 28.3261 131.137 28.5538 131.257 28.7578C131.376 28.9619 131.539 29.1375 131.733 29.2723C132.357 29.6538 133.151 29.5497 133.873 29.4249C134.834 29.2922 135.777 29.0466 136.681 28.6932C137.591 28.3366 138.366 27.7019 138.894 26.8796C138.514 26.6372 138.2 26.3044 137.981 25.911C137.761 25.5177 137.642 25.076 137.635 24.6255C137.587 23.7274 137.833 22.7079 137.264 22.0109C136.695 21.3138 135.686 21.345 134.837 21.5739C134.417 21.6918 134.011 21.8513 133.592 21.9658C133.377 22.0213 132.676 22.0247 132.551 22.1808C132.309 22.4651 132.87 23.7725 132.895 24.2267Z" fill="#FBBEBE"/>
<path opacity="0.1" d="M132.895 24.2267C132.933 24.6174 132.881 25.0116 132.743 25.379C132.604 25.7463 132.383 26.077 132.097 26.3455C131.906 26.5085 131.681 26.6299 131.497 26.7998C131.332 26.9689 131.206 27.172 131.127 27.395C131.048 27.6179 131.019 27.8554 131.042 28.0908C131.064 28.3261 131.137 28.5538 131.257 28.7578C131.376 28.9619 131.539 29.1375 131.733 29.2723C132.357 29.6538 133.151 29.5497 133.873 29.4249C134.834 29.2922 135.777 29.0466 136.681 28.6932C137.591 28.3366 138.366 27.7019 138.894 26.8796C138.514 26.6372 138.2 26.3044 137.981 25.911C137.761 25.5177 137.642 25.076 137.635 24.6255C137.587 23.7274 137.833 22.7079 137.264 22.0109C136.695 21.3138 135.686 21.345 134.837 21.5739C134.417 21.6918 134.011 21.8513 133.592 21.9658C133.377 22.0213 132.676 22.0247 132.551 22.1808C132.309 22.4651 132.87 23.7725 132.895 24.2267Z" fill="black"/>
<path d="M135.306 24.1784C137.874 24.1784 139.956 22.0964 139.956 19.5282C139.956 16.9599 137.874 14.8779 135.306 14.8779C132.737 14.8779 130.655 16.9599 130.655 19.5282C130.655 22.0964 132.737 24.1784 135.306 24.1784Z" fill="#FBBEBE"/>
<path d="M120.623 55.1968C120.541 55.567 120.393 55.9195 120.186 56.2371C119.642 57.1997 119.446 58.3201 119.631 59.4101C119.728 59.9504 119.957 60.4584 120.298 60.8891C120.638 61.3197 121.08 61.6598 121.583 61.8791C121.793 61.9839 122.027 62.0314 122.262 62.0168C122.496 62.0022 122.723 61.926 122.918 61.7959C122.298 60.9879 122.263 59.8852 122.301 58.8657C122.29 58.6756 122.335 58.4864 122.429 58.3212C122.455 58.2825 122.489 58.2494 122.528 58.2239C122.567 58.1984 122.611 58.1811 122.657 58.173C122.703 58.1649 122.75 58.1662 122.796 58.1768C122.841 58.1873 122.884 58.207 122.922 58.2345C122.904 58.8767 123.029 59.5149 123.286 60.1036C123.383 60.329 123.549 60.5787 123.799 60.5718C124.146 60.5718 124.246 60.0828 124.233 59.7291C124.18 58.2865 124.108 56.785 123.414 55.5228C123.109 55.0899 122.875 54.6111 122.721 54.1045C122.715 53.9241 122.652 53.7502 122.54 53.6086C122.464 53.5483 122.375 53.5068 122.28 53.4872C121.881 53.3728 120.931 53.0225 120.602 53.397C120.272 53.7715 120.685 54.7182 120.623 55.1968Z" fill="#FBBEBE"/>
<path d="M127.527 30.4956C126.993 30.4332 126.574 30.9222 126.282 31.373C125.193 33.0507 124.408 34.908 123.966 36.8589C123.74 37.8542 123.602 38.8876 123.127 39.7927C123.014 39.9808 122.922 40.1808 122.853 40.3891C122.814 40.7089 122.801 41.0312 122.811 41.3531C122.763 41.9323 122.419 42.4489 122.305 43.0211C122.235 43.3679 122.249 43.7147 122.187 44.0614C122.083 44.6579 121.753 45.1919 121.542 45.7641C121.171 46.7698 121.174 47.8725 120.9 48.9093C120.867 49.0793 120.793 49.2386 120.685 49.374C120.502 49.5786 120.203 49.6272 119.964 49.7589C119.773 49.8753 119.61 50.0311 119.484 50.216C119.359 50.4008 119.274 50.6103 119.236 50.8305C119.164 51.2709 119.155 51.7194 119.212 52.1621L119.427 54.912C119.645 54.8184 119.773 54.5652 119.975 54.4161C120.321 54.1387 120.803 54.2011 121.233 54.2774L121.861 54.3919C122.502 54.5063 123.2 54.6554 123.595 55.1617C123.921 54.6485 123.737 53.896 124.236 53.5561C124.399 53.4452 124.604 53.4105 124.774 53.3134C124.936 53.2084 125.07 53.066 125.165 52.8982C125.261 52.7305 125.314 52.5422 125.322 52.3494C125.332 51.9631 125.279 51.5778 125.166 51.2085C125.97 50.8617 126.47 50.0537 126.785 49.2388C127.131 48.2523 127.381 47.2351 127.534 46.201C128.259 42.1126 128.921 37.9964 128.991 33.8455C129.036 33.1521 128.96 32.4561 128.765 31.7891C128.55 31.1302 128.217 30.5719 127.527 30.4956Z" fill="#304FFE"/>
<path opacity="0.1" d="M127.527 30.4956C126.993 30.4332 126.574 30.9222 126.282 31.373C125.193 33.0507 124.408 34.908 123.966 36.8589C123.74 37.8542 123.602 38.8876 123.127 39.7927C123.014 39.9808 122.922 40.1808 122.853 40.3891C122.814 40.7089 122.801 41.0312 122.811 41.3531C122.763 41.9323 122.419 42.4489 122.305 43.0211C122.235 43.3679 122.249 43.7147 122.187 44.0614C122.083 44.6579 121.753 45.1919 121.542 45.7641C121.171 46.7698 121.174 47.8725 120.9 48.9093C120.867 49.0793 120.793 49.2386 120.685 49.374C120.502 49.5786 120.203 49.6272 119.964 49.7589C119.773 49.8753 119.61 50.0311 119.484 50.216C119.359 50.4008 119.274 50.6103 119.236 50.8305C119.164 51.2709 119.155 51.7194 119.212 52.1621L119.427 54.912C119.645 54.8184 119.773 54.5652 119.975 54.4161C120.321 54.1387 120.803 54.2011 121.233 54.2774L121.861 54.3919C122.502 54.5063 123.2 54.6554 123.595 55.1617C123.921 54.6485 123.737 53.896 124.236 53.5561C124.399 53.4452 124.604 53.4105 124.774 53.3134C124.936 53.2084 125.07 53.066 125.165 52.8982C125.261 52.7305 125.314 52.5422 125.322 52.3494C125.332 51.9631 125.279 51.5778 125.166 51.2085C125.97 50.8617 126.47 50.0537 126.785 49.2388C127.131 48.2523 127.381 47.2351 127.534 46.201C128.259 42.1126 128.921 37.9964 128.991 33.8455C129.036 33.1521 128.96 32.4561 128.765 31.7891C128.55 31.1302 128.217 30.5719 127.527 30.4956Z" fill="black"/>
<path d="M139.244 26.0439C138.477 26.8486 137.497 27.4186 136.418 27.6877C135.344 27.9525 134.246 28.1139 133.141 28.1697C132.802 28.2249 132.454 28.1951 132.129 28.083C131.968 28.0212 131.837 27.9023 131.759 27.7492C131.682 27.5961 131.664 27.4198 131.709 27.2542C131.768 27.1546 131.809 27.0454 131.83 26.9317C131.83 26.6473 131.407 26.6231 131.137 26.7063C129.347 27.2611 127.631 28.3569 126.806 30.0388C126.389 31.0136 126.129 32.0482 126.036 33.1043C125.647 35.8785 125.259 38.6769 125.779 41.4268C126.06 42.8868 126.594 44.3051 126.625 45.7893C126.646 46.6215 126.504 47.4503 126.511 48.2826C126.487 48.574 126.566 48.8646 126.733 49.1044C126.861 49.2535 127.055 49.3472 127.145 49.524C127.294 49.8153 127.093 50.2176 127.291 50.4846C127.537 50.8106 128.044 50.5747 128.38 50.3459C130.067 49.2007 132.105 48.6886 134.133 48.8998C136.56 49.1599 138.988 50.4603 141.353 49.8084C141.231 49.6317 141.126 49.4436 141.041 49.2466C139.862 45.3766 139.941 41.0454 141.706 37.4043C142.306 36.1593 143.094 34.9768 143.336 33.6106C143.429 32.9729 143.438 32.3257 143.361 31.686C143.278 30.4388 142.904 29.2283 142.268 28.1523C141.599 27.0877 140.486 26.1688 139.244 26.0439Z" fill="#304FFE"/>
<path d="M127.998 56.3931C127.81 56.8998 127.72 57.4375 127.731 57.9779C127.715 58.4935 127.741 59.0095 127.808 59.521C127.848 59.9588 128.005 60.3778 128.262 60.7347C128.392 60.9104 128.572 61.0433 128.778 61.1168C128.985 61.1902 129.208 61.2009 129.42 61.1474C129.586 61.0775 129.734 60.9715 129.854 60.8372C129.974 60.7028 130.063 60.5434 130.114 60.3706C130.213 60.0228 130.288 59.6681 130.336 59.3095C130.537 58.2692 131.092 57.2635 131.102 56.1885C131.109 56.0609 131.089 55.9333 131.043 55.814C130.842 55.3736 129.854 54.8777 129.372 54.9505C128.775 55.0442 128.22 55.8833 127.998 56.3931Z" fill="#FBBEBE"/>
<path opacity="0.1" d="M141.416 29.9688C141.325 30.8946 142.22 31.5917 142.574 32.4482C142.717 32.8498 142.799 33.2706 142.817 33.6966C143.066 36.6546 142.872 39.6264 142.678 42.5844C142.65 43.5695 142.534 44.5501 142.331 45.5146C141.832 47.5363 140.597 49.291 139.401 50.9902C139.22 51.2685 139.009 51.5266 138.773 51.76C138.42 52.0463 138.028 52.2799 137.608 52.4536L133.481 54.4545C132.964 54.6826 132.472 54.965 132.015 55.2971C131.483 55.7134 131.066 56.2574 130.801 56.8784C130 56.4692 129.168 56.1017 128.373 55.6925C128.186 55.5954 127.975 55.4705 127.943 55.2625C127.902 54.985 128.193 54.7874 128.394 54.5689C128.769 54.1979 128.883 53.6465 129.088 53.161C129.754 51.5658 131.422 50.5463 132.025 48.9304C132.257 48.3096 132.327 47.6057 132.739 47.0855C132.974 46.8249 133.238 46.5922 133.527 46.392C134.159 45.8523 134.74 45.2544 135.26 44.6061C135.497 44.3615 135.69 44.079 135.833 43.7704C135.965 43.2946 136.011 42.7989 135.968 42.307C135.999 40.691 136.731 39.186 137.178 37.6325C137.598 36.1725 137.775 34.6398 138.326 33.2215C138.877 31.8032 139.938 30.3502 141.416 29.9688Z" fill="black"/>
<path d="M141.953 29.9688C141.863 30.8946 142.754 31.5917 143.108 32.4482C143.252 32.8496 143.335 33.2704 143.354 33.6966C143.6 36.6546 143.41 39.6264 143.215 42.5844C143.181 43.57 143.06 44.5506 142.851 45.5146C142.352 47.5363 141.117 49.291 139.921 50.9902C139.74 51.2685 139.53 51.5266 139.293 51.76C138.941 52.0463 138.548 52.2799 138.128 52.4536L133.998 54.4545C133.482 54.6841 132.99 54.9665 132.531 55.2971C132.001 55.7144 131.584 56.2581 131.318 56.8784C130.517 56.4692 129.688 56.1017 128.89 55.6925C128.703 55.5954 128.491 55.4705 128.46 55.2625C128.415 54.985 128.706 54.7874 128.908 54.5689C129.286 54.1979 129.4 53.6465 129.601 53.161C130.263 51.5658 131.935 50.5463 132.538 48.9304C132.771 48.3096 132.84 47.6057 133.253 47.0855C133.486 46.8232 133.75 46.5904 134.04 46.392C134.672 45.8523 135.253 45.2544 135.774 44.6061C136.01 44.3615 136.203 44.079 136.346 43.7704C136.476 43.2942 136.522 42.7989 136.481 42.307C136.512 40.691 137.241 39.186 137.688 37.6325C138.111 36.1725 138.284 34.6398 138.836 33.2215C139.387 31.8032 140.483 30.3502 141.953 29.9688Z" fill="#304FFE"/>
<path d="M137.608 12.3391C136.175 12.1651 134.726 12.466 133.481 13.1956C133.665 13.1956 133.849 13.1956 134.032 13.2373C135.408 13.4035 136.697 13.9975 137.717 14.9355C138.737 15.8735 139.437 17.1081 139.718 18.4651C139.999 19.8221 139.846 21.233 139.282 22.4988C138.718 23.7646 137.771 24.8214 136.574 25.52C138.275 25.5744 139.93 24.9718 141.198 23.8373C142.466 22.7028 143.248 21.1236 143.382 19.4277C143.516 17.7317 142.991 16.0494 141.917 14.73C140.843 13.4106 139.302 12.5556 137.614 12.3426L137.608 12.3391Z" fill="#46455B"/>
<path d="M139.643 16.0195C139.805 16.3831 139.892 16.775 139.901 17.1725C139.91 17.5701 139.84 17.9655 139.695 18.336C139.664 18.2423 139.63 18.1487 139.588 18.0551C138.77 16.2345 136.252 15.482 133.96 16.3732C133.35 16.5896 132.794 16.9322 132.326 17.3786C131.858 17.825 131.489 18.3651 131.245 18.9636C130.662 17.202 131.844 15.1838 134.019 14.3377C136.307 13.4465 138.825 14.199 139.643 16.0195Z" fill="#46455B"/>
<g opacity="0.1">
<path opacity="0.1" d="M139.657 18.1923C139.552 16.915 139.078 15.6957 138.293 14.6825C137.508 13.6693 136.446 12.9057 135.236 12.4844C134.62 12.6299 134.029 12.8635 133.481 13.1779C133.665 13.1779 133.849 13.1779 134.032 13.2195C135.363 13.3805 136.614 13.9422 137.619 14.8303C138.623 15.7184 139.334 16.8909 139.657 18.1923Z" fill="black"/>
<path opacity="0.1" d="M140.728 13.3622C140.622 12.0852 140.148 10.8663 139.363 9.85325C138.578 8.84018 137.517 8.07637 136.307 7.6543C135.691 7.80796 135.1 8.04849 134.552 8.36865C134.736 8.36865 134.92 8.36865 135.107 8.41026C136.435 8.56996 137.683 9.1288 138.687 10.013C139.691 10.8971 140.402 12.065 140.728 13.3622Z" fill="black"/>
<path opacity="0.1" d="M140.756 6.15171C140.69 5.38419 140.403 4.6523 139.929 4.04436C139.456 3.43641 138.817 2.9784 138.089 2.72559C137.717 2.81595 137.36 2.95961 137.028 3.15212C137.139 3.15212 137.25 3.15212 137.375 3.17986C138.172 3.27711 138.922 3.61286 139.525 4.14313C140.128 4.6734 140.557 5.37348 140.756 6.15171Z" fill="black"/>
<path opacity="0.1" d="M143.232 17.291C143.36 18.8776 142.912 20.4571 141.971 21.7407C141.03 23.0244 139.658 23.9265 138.107 24.282C137.66 24.7671 137.143 25.1832 136.574 25.5165C137.6 25.5539 138.621 25.3521 139.555 24.927C140.49 24.502 141.312 23.8652 141.958 23.0673C142.604 22.2693 143.056 21.332 143.277 20.3294C143.498 19.3269 143.483 18.2867 143.232 17.291Z" fill="black"/>
</g>
<path d="M201.903 86.5452C201.479 86.1947 200.953 85.9909 200.404 85.964C199.854 85.9371 199.311 86.0887 198.855 86.396C198.161 86.9093 197.86 87.7623 197.575 88.5669C197.159 89.7563 196.486 90.911 196.375 92.1698C196.067 95.6376 193.636 98.5539 192.908 101.952C192.641 103.166 192.589 104.442 192.086 105.576C191.845 106.074 191.567 106.553 191.254 107.008C190.034 108.925 188.99 110.948 188.133 113.053C187.529 113.236 187.033 113.815 186.551 114.277C185.933 114.868 185.193 115.318 184.384 115.594C184.054 115.668 183.746 115.819 183.486 116.035C183.139 116.402 183.139 116.995 182.851 117.422C182.647 117.701 182.375 117.924 182.061 118.07C182.039 117.972 182.023 117.872 182.012 117.772C181.939 117.242 181.88 116.711 181.825 116.18C182.632 115.002 182.993 113.575 182.843 112.155C182.693 110.734 182.042 109.414 181.006 108.43C180.942 107.602 180.967 106.77 181.079 105.947C181.13 105.749 181.125 105.541 181.064 105.346C181.002 105.151 180.888 104.977 180.732 104.844C180.563 104.737 180.354 104.713 180.174 104.622C179.913 104.447 179.691 104.219 179.522 103.953C179.035 103.401 178.368 103.039 177.639 102.931C176.911 102.823 176.168 102.976 175.541 103.364C174.57 104.012 174.057 105.163 173.228 105.992C172.798 106.419 172.288 106.755 171.862 107.182C171.009 108.096 170.455 109.249 170.274 110.486C170.096 111.717 170.046 112.963 170.125 114.204C170.116 114.58 170.17 114.955 170.284 115.314C170.408 115.608 170.579 115.879 170.79 116.118C171.806 117.443 173.15 118.482 174.688 119.132C174.699 119.205 174.705 119.279 174.706 119.353C174.706 119.468 174.706 119.582 174.678 119.7L174.508 119.672C173.884 119.596 173.225 119.672 172.646 119.433C171.657 119.007 171.259 117.751 170.284 117.259C170.203 117.216 170.118 117.181 170.031 117.155C169.8 115.539 169.324 113.967 168.62 112.494C168.273 111.801 167.881 111.079 167.839 110.296C167.861 109.567 168.025 108.85 168.321 108.184C169.105 105.802 169.724 103.369 170.173 100.902C170.488 99.355 170.804 97.8084 171.123 96.2618C171.554 95.8703 171.934 95.4264 172.254 94.9406C172.922 93.9742 173.313 92.8433 173.384 91.6705C173.415 91.0856 173.33 90.5005 173.134 89.9487C172.937 89.397 172.633 88.8896 172.24 88.4559C172.066 88.2445 171.849 88.0731 171.603 87.9534C171.357 87.8337 171.088 87.7685 170.815 87.7623C170.579 87.7901 170.351 87.866 170.146 87.9853C169.941 88.1046 169.763 88.2648 169.622 88.4559C169.198 89.0488 168.892 89.7174 168.72 90.4256C168.373 91.5768 168.027 92.7767 168.183 93.9696C168.325 94.9579 168.807 96.0294 168.314 96.8964C166.692 99.7364 165.571 102.93 164.368 105.975C164.058 106.705 163.805 107.459 163.612 108.229C163.371 109.47 163.329 110.741 163.487 111.995C163.773 114.346 164.226 116.675 164.843 118.962C165.096 120.002 165.395 121.101 165.991 121.958C165.779 123.12 165.728 124.305 165.838 125.481C165.853 125.753 165.923 126.018 166.047 126.261C166.245 126.54 166.486 126.787 166.761 126.993C167.133 127.339 167.427 127.761 167.622 128.23C167.818 128.698 167.911 129.204 167.895 129.712C167.912 130.661 168.096 131.6 168.439 132.486C169.268 134.958 170.1 137.431 170.825 139.938C170.982 140.402 171.069 140.887 171.082 141.377C171.082 142.071 170.752 142.764 170.905 143.458C171.021 143.771 171.116 144.092 171.189 144.418C171.195 144.67 171.162 144.922 171.092 145.164C170.641 147.123 169.337 151.642 169.563 153.642L170.01 153.486C169.819 156.136 169.001 158.73 168.703 161.379C168.507 163.308 168.528 165.253 168.765 167.177C168.895 168.037 168.969 168.905 168.987 169.774C168.987 170.555 168.862 171.324 168.831 172.101C168.816 173.145 168.877 174.188 169.015 175.222C169.151 176.845 169.409 178.455 169.788 180.039C170.51 182.73 170.024 185.532 170.104 188.32C170.197 190.265 170.177 192.213 170.045 194.156C169.972 194.978 169.858 195.796 169.833 196.622C169.761 199.07 170.485 201.508 170.229 203.942C170.107 205.083 169.816 206.369 170.534 207.268C170.763 207.549 171.071 207.75 171.314 208.017C171.446 208.141 171.543 208.297 171.596 208.471C171.649 208.644 171.656 208.828 171.616 209.005C171.522 209.279 171.269 209.48 171.21 209.768C171.144 210.219 171.64 210.531 172.07 210.676L172.191 210.711C172.182 210.862 172.205 211.012 172.258 211.153C172.312 211.294 172.394 211.422 172.5 211.529C172.769 211.735 173.089 211.862 173.426 211.897L178.974 212.972C180.212 213.211 181.558 213.437 182.719 213.017C182.764 213.185 182.854 213.337 182.98 213.458C183.247 213.662 183.567 213.79 183.902 213.825L189.45 214.9C190.865 215.174 192.419 215.427 193.681 214.727C194.045 214.532 194.352 214.247 194.572 213.898C194.749 213.567 194.852 213.202 194.873 212.828C194.894 212.453 194.833 212.079 194.694 211.731C194.587 211.374 194.371 211.06 194.076 210.832C193.683 210.616 193.234 210.52 192.786 210.555C192.406 210.583 192.024 210.525 191.67 210.385C191.561 210.328 191.466 210.248 191.392 210.149C191.67 209.803 191.937 209.456 192.19 209.109C191.951 209.054 191.843 208.724 191.784 208.481C191.07 204.882 192.072 201.199 192.218 197.523C192.291 195.683 192.147 193.84 191.788 192.034C191.652 191.34 191.489 190.681 191.392 189.995C190.883 186.413 192.245 182.775 191.812 179.182C191.607 177.504 192.329 175.749 192.585 174.078C192.811 172.594 192.665 171.082 192.519 169.57L191.371 157.78C191.215 156.188 191.052 154.558 190.373 153.108C190.033 152.298 189.872 151.424 189.901 150.546C191.288 149.752 192.564 148.659 194.132 148.656C194.434 147.512 193.567 143.902 193.06 142.834C191.085 138.623 190.305 133.951 190.803 129.327C190.987 127.666 190.324 125.991 190.546 124.333C190.579 123.945 190.688 123.567 190.865 123.22C190.955 123.048 191.086 122.902 191.247 122.794C191.409 122.687 191.595 122.622 191.788 122.606C191.691 121.611 191.562 120.609 191.392 119.614C191.963 119.031 192.432 118.357 192.779 117.62C193.501 116.111 193.82 114.447 194.239 112.831C195.002 109.984 196.167 107.265 197.09 104.47C198.012 101.675 197.832 98.7204 198.494 95.8491C198.868 94.2673 199.837 92.8901 201.199 92.0034C201.726 91.6566 202.326 91.3896 202.69 90.8764C202.965 90.4545 203.109 89.9613 203.106 89.4581C203.138 88.9133 203.046 88.3685 202.837 87.8642C202.629 87.3599 202.31 86.9091 201.903 86.5452ZM180.708 207.875C180.812 207.732 180.913 207.59 181.006 207.441C180.639 207.42 180.174 207.205 180.129 206.838C180.118 206.47 180.159 206.102 180.25 205.745C180.355 205.108 180.316 204.455 180.136 203.835C180.008 203.405 179.817 202.992 179.678 202.562C179.543 202.082 179.435 201.594 179.356 201.102C179.016 199.341 178.487 197.621 177.778 195.973C177.084 194.375 177.622 192.63 177.629 190.886C177.629 190.064 177.504 189.225 177.712 188.427C177.833 187.956 178.059 187.519 178.187 187.04C178.471 185.941 178.114 184.786 177.764 183.708C179.134 180.469 179.318 176.772 179.598 173.249C179.756 171.279 179.913 169.314 180.07 167.354C180.139 166.477 180.219 165.565 180.68 164.816C181.5 167.32 181.988 169.921 182.133 172.552C182.148 173.312 182.236 174.07 182.397 174.813C182.615 175.635 183.042 176.38 183.326 177.178C183.957 178.933 183.892 180.85 184.176 182.692C184.29 183.437 184.464 184.172 184.575 184.918C185.053 188.209 184.28 191.541 183.51 194.777C183.038 196.76 183.115 198.955 183.007 200.991C182.907 202.943 182.803 204.896 182.851 206.852C182.851 207.448 182.889 208.058 182.882 208.665C182.694 208.643 182.504 208.632 182.314 208.634C181.934 208.662 181.552 208.604 181.197 208.464C180.977 208.322 180.807 208.117 180.708 207.875Z" fill="url(#paint1_linear)"/>
<path d="M192.804 210.58C193.251 210.546 193.699 210.641 194.094 210.854C194.387 211.082 194.603 211.394 194.711 211.749C194.849 212.095 194.91 212.467 194.888 212.84C194.867 213.212 194.764 213.575 194.586 213.902C194.366 214.249 194.058 214.533 193.695 214.724C192.433 215.418 190.879 215.172 189.464 214.901L183.916 213.837C183.582 213.807 183.261 213.687 182.99 213.49C182.822 213.305 182.715 213.071 182.686 212.822C182.657 212.574 182.706 212.322 182.827 212.103C183.069 211.665 183.43 211.304 183.867 211.062C185.463 210.071 187.335 209.675 189.166 209.464C189.86 209.38 190.508 209.159 191.028 209.641C191.306 209.894 191.292 210.209 191.68 210.414C192.038 210.552 192.422 210.609 192.804 210.58Z" fill="#3F3D56"/>
<path d="M182.321 208.673C182.767 208.638 183.214 208.733 183.608 208.947C183.903 209.172 184.119 209.485 184.225 209.842C184.365 210.187 184.426 210.56 184.405 210.932C184.384 211.304 184.281 211.667 184.104 211.995C183.882 212.341 183.575 212.624 183.212 212.817C181.95 213.51 180.397 213.264 178.978 212.994L173.43 211.926C173.095 211.897 172.775 211.777 172.504 211.579C172.335 211.394 172.228 211.161 172.198 210.912C172.168 210.663 172.217 210.411 172.337 210.192C172.587 209.754 172.953 209.394 173.395 209.151C174.987 208.163 176.863 207.782 178.694 207.556C179.387 207.47 180.036 207.251 180.556 207.73C180.83 207.983 180.82 208.298 181.204 208.503C181.559 208.642 181.941 208.7 182.321 208.673Z" fill="#3F3D56"/>
<path d="M180.955 149.72C177.747 149.733 174.545 149.978 171.373 150.452C171.164 150.471 170.959 150.525 170.766 150.611C170.094 150.958 170.073 151.901 170.09 152.657C170.135 155.733 169.085 158.712 168.738 161.764C168.539 163.68 168.559 165.612 168.797 167.524C168.923 168.38 168.997 169.242 169.019 170.107C169.019 170.877 168.89 171.643 168.859 172.417C168.843 173.448 168.903 174.48 169.039 175.503C169.175 177.115 169.434 178.715 169.813 180.288C170.531 182.962 170.045 185.747 170.121 188.514C170.214 190.446 170.192 192.382 170.055 194.312C169.983 195.13 169.868 195.942 169.844 196.764C169.771 199.191 170.492 201.618 170.236 204.046C170.114 205.176 169.82 206.473 170.538 207.347C170.766 207.625 171.075 207.826 171.314 208.093C171.445 208.216 171.542 208.37 171.596 208.542C171.649 208.713 171.657 208.895 171.619 209.071C171.522 209.345 171.255 209.546 171.214 209.83C171.144 210.277 171.64 210.59 172.07 210.732C173.708 211.234 175.465 211.193 177.077 210.613C178.689 210.034 180.07 208.947 181.014 207.517C180.646 207.496 180.181 207.281 180.136 206.917C180.125 206.551 180.166 206.186 180.258 205.832C180.364 205.199 180.325 204.55 180.143 203.935C180.018 203.505 179.824 203.096 179.689 202.669C179.554 202.193 179.446 201.709 179.366 201.22C179.029 199.468 178.501 197.759 177.792 196.122C177.098 194.534 177.639 192.8 177.646 191.073C177.646 190.255 177.525 189.419 177.73 188.628C177.851 188.157 178.076 187.723 178.208 187.241C178.493 186.149 178.135 185.005 177.785 183.933C179.172 180.715 179.346 177.025 179.626 173.53L180.102 167.635C180.171 166.764 180.254 165.856 180.712 165.114C181.531 167.6 182.019 170.184 182.165 172.798C182.176 173.555 182.263 174.309 182.425 175.049C182.643 175.86 183.066 176.602 183.354 177.396C183.982 179.13 183.916 181.041 184.2 182.872C184.315 183.614 184.485 184.342 184.596 185.084C185.074 188.354 184.298 191.673 183.524 194.881C183.053 196.85 183.125 199.042 183.018 201.057C182.914 202.995 182.81 204.934 182.858 206.876C182.9 208.661 183.039 210.579 182.078 212.077C183.153 212.625 184.263 213.183 185.463 213.287C186.859 213.362 188.237 212.944 189.357 212.108C190.466 211.274 191.43 210.263 192.211 209.116C191.968 209.06 191.864 208.731 191.805 208.492C191.091 204.916 192.096 201.244 192.246 197.603C192.319 195.775 192.176 193.945 191.819 192.152C191.684 191.458 191.517 190.803 191.42 190.123C190.917 186.565 192.28 182.948 191.85 179.373C191.649 177.701 192.37 175.961 192.627 174.296C192.852 172.822 192.71 171.321 192.565 169.837L191.424 158.133C191.271 156.548 191.108 154.929 190.428 153.49C189.617 151.756 190.12 149.62 190.033 147.709C187.169 148.97 184.084 149.653 180.955 149.72Z" fill="#46455B"/>
<path d="M187.654 115.061C188.598 112.483 189.824 110.018 191.309 107.709C191.622 107.256 191.9 106.78 192.141 106.284C192.648 105.161 192.7 103.891 192.967 102.685C193.712 99.3071 196.146 96.408 196.459 92.975C196.57 91.7231 197.242 90.5753 197.662 89.3928C197.943 88.5917 198.262 87.7456 198.941 87.2358C199.398 86.9315 199.94 86.7814 200.488 86.8076C201.036 86.8338 201.561 87.035 201.986 87.3815C202.401 87.7408 202.728 88.1907 202.941 88.6963C203.155 89.202 203.249 89.7499 203.217 90.2979C203.219 90.7977 203.074 91.287 202.801 91.7058C202.434 92.2155 201.837 92.4895 201.31 92.8258C199.951 93.7022 198.981 95.0681 198.602 96.6404C197.936 99.4943 198.116 102.425 197.19 105.202C196.264 107.98 195.11 110.685 194.336 113.525C193.903 115.13 193.594 116.784 192.869 118.283C192.145 119.781 190.914 121.133 189.294 121.518C189.192 120.487 188.925 119.479 188.504 118.532C188.018 117.436 187.245 116.174 187.654 115.061Z" fill="#A0616A"/>
<path d="M170.208 119.017C170.074 116.991 169.551 115.009 168.668 113.181C168.321 112.487 167.933 111.794 167.891 111C167.912 110.275 168.076 109.562 168.373 108.902C169.158 106.53 169.778 104.108 170.228 101.651L171.186 97.0385C171.614 96.6497 171.992 96.2094 172.313 95.7277C172.982 94.7694 173.374 93.6451 173.447 92.4784C173.479 91.8964 173.394 91.3138 173.198 90.7648C173.002 90.2158 172.699 89.7114 172.306 89.2811C172.13 89.0737 171.912 88.9064 171.666 88.7904C171.42 88.6743 171.152 88.6123 170.88 88.6084C170.645 88.6362 170.417 88.7121 170.212 88.8314C170.007 88.9507 169.828 89.1108 169.687 89.3019C169.271 89.8865 168.971 90.5458 168.803 91.2439C168.456 92.3882 168.11 93.5777 168.262 94.7636C168.401 95.745 168.886 96.8096 168.391 97.6696C166.764 100.496 165.644 103.665 164.437 106.686C164.129 107.412 163.877 108.161 163.685 108.926C163.442 110.159 163.397 111.424 163.553 112.671C163.837 115.012 164.289 117.33 164.905 119.607C165.252 121.035 165.686 122.589 166.886 123.445C167.874 121.864 168.873 120.314 170.208 119.017Z" fill="#A0616A"/>
<path d="M176.974 119.416C180.262 119.416 182.928 116.75 182.928 113.462C182.928 110.174 180.262 107.508 176.974 107.508C173.685 107.508 171.02 110.174 171.02 113.462C171.02 116.75 173.685 119.416 176.974 119.416Z" fill="#A0616A"/>
<path d="M174.751 119.992C174.716 121.077 174.244 122.093 173.78 123.078C173.499 123.671 173.131 124.334 172.49 124.465C174.295 125.188 176.169 125.726 178.083 126.071C178.738 126.218 179.413 126.256 180.081 126.185C180.642 126.085 181.181 125.885 181.672 125.596C182.75 124.985 183.674 124.136 184.376 123.115C185.077 122.094 185.536 120.926 185.719 119.701C184.985 119.797 184.242 119.816 183.503 119.76C183.085 119.771 182.679 119.621 182.369 119.34C182.174 119.068 182.063 118.745 182.05 118.411C181.919 117.426 181.813 116.439 181.735 115.449C180.27 115.506 178.829 115.836 177.487 116.424C176.932 116.666 176.391 116.947 175.819 117.155C175.472 117.28 174.47 117.304 174.227 117.53C173.853 117.887 174.772 119.243 174.751 119.992Z" fill="#A0616A"/>
<path d="M177.737 123.321C177.591 122.55 177.206 121.844 176.637 121.304C176.069 120.763 175.345 120.414 174.567 120.308C173.943 120.235 173.284 120.308 172.705 120.075C171.717 119.649 171.3 118.404 170.343 117.915C169.386 117.426 168.145 117.88 167.437 118.699C166.73 119.517 166.432 120.63 166.217 121.67C165.883 123.113 165.775 124.599 165.894 126.074C165.911 126.345 165.983 126.61 166.106 126.851C166.305 127.129 166.544 127.374 166.817 127.579C167.188 127.921 167.482 128.339 167.678 128.805C167.873 129.27 167.966 129.773 167.951 130.277C167.963 131.227 168.146 132.167 168.492 133.052C169.32 135.507 170.153 137.965 170.874 140.455C171.031 140.916 171.118 141.397 171.131 141.884C171.113 142.577 170.784 143.271 170.954 143.947C171.067 144.259 171.161 144.577 171.235 144.901C171.24 145.152 171.208 145.402 171.137 145.643C170.683 147.592 169.379 152.079 169.605 154.066C172.563 152.977 177.026 152.332 180.161 151.985C181.023 151.886 181.89 151.835 182.758 151.833C184.839 151.833 187.02 152.225 188.962 151.462C190.761 150.768 192.256 149.097 194.191 149.09C194.493 147.956 193.626 144.37 193.123 143.309C191.15 139.13 190.373 134.486 190.876 129.892C191.056 128.242 190.397 126.577 190.623 124.93C190.655 124.544 190.762 124.168 190.938 123.824C191.029 123.653 191.162 123.507 191.323 123.4C191.485 123.292 191.671 123.227 191.864 123.21C191.634 120.628 191.128 118.077 190.356 115.602C190.075 114.721 189.569 113.702 188.646 113.643C187.814 113.587 187.2 114.336 186.6 114.922C185.981 115.51 185.241 115.956 184.433 116.229C184.102 116.302 183.792 116.453 183.531 116.67C183.184 117.034 183.184 117.627 182.897 118.057C182.397 118.827 181.121 118.9 180.816 119.76C180.752 120.013 180.707 120.27 180.681 120.529C180.539 121.036 180.255 121.491 179.862 121.84C179.288 122.503 178.557 123.011 177.737 123.321Z" fill="#2F2E41"/>
<path d="M181.131 106.668C181.182 106.472 181.177 106.265 181.115 106.072C181.054 105.879 180.939 105.707 180.784 105.576C180.601 105.49 180.414 105.415 180.222 105.351C179.962 105.173 179.742 104.944 179.574 104.678C179.086 104.128 178.419 103.767 177.692 103.661C176.964 103.554 176.222 103.708 175.597 104.095C174.622 104.74 174.112 105.885 173.28 106.706C172.854 107.133 172.344 107.466 171.914 107.892C171.062 108.799 170.507 109.943 170.322 111.173C170.144 112.397 170.094 113.635 170.173 114.87C170.163 115.244 170.217 115.617 170.332 115.972C170.457 116.264 170.628 116.533 170.839 116.77C171.896 118.151 173.313 119.214 174.934 119.842C176.564 120.418 178.468 120.349 179.924 119.416C180.07 119.335 180.19 119.215 180.271 119.069C180.34 118.852 180.34 118.62 180.271 118.403C180.097 117.539 180.18 116.644 180.51 115.827C180.799 115.258 181.056 114.673 181.28 114.075C181.423 113.391 181.441 112.686 181.336 111.995C181.166 110.226 180.857 108.444 181.131 106.668Z" fill="#46455B"/>
<path d="M281.88 199C281.88 233.116 303.283 260.726 329.735 260.726L281.88 199Z" fill="#46455B"/>
<path d="M329.735 260.726C329.735 226.222 353.617 198.307 383.138 198.307L329.735 260.726Z" fill="#304FFE"/>
<path d="M299.218 202.073C299.218 234.483 312.864 260.709 329.734 260.709L299.218 202.073Z" fill="#304FFE"/>
<path d="M329.735 260.726C329.735 216.64 357.342 180.968 391.461 180.968L329.735 260.726Z" fill="#46455B"/>
<path opacity="0.1" d="M327.657 272.499C334.228 272.499 339.555 271.599 339.555 270.488C339.555 269.377 334.228 268.477 327.657 268.477C321.086 268.477 315.759 269.377 315.759 270.488C315.759 271.599 321.086 272.499 327.657 272.499Z" fill="#304FFE"/>
<path d="M319.665 261.143C319.665 261.143 326.451 260.935 328.497 259.478C330.543 258.022 338.938 256.281 339.445 258.618C339.951 260.955 349.643 270.235 341.983 270.297C334.323 270.36 324.18 269.105 322.137 267.87C320.095 266.636 319.665 261.143 319.665 261.143Z" fill="#A8A8A8"/>
<path opacity="0.2" d="M342.107 269.483C334.447 269.545 324.304 268.29 322.262 267.056C320.708 266.105 320.087 262.711 319.883 261.14H319.654C319.654 261.14 320.084 266.612 322.126 267.857C324.169 269.102 334.308 270.357 341.972 270.284C344.181 270.267 344.947 269.48 344.906 268.314C344.608 269.05 343.765 269.469 342.107 269.483Z" fill="black"/>
<path opacity="0.1" d="M282.809 13.355C283.109 12.9277 283.274 12.4205 283.284 11.8985C283.284 8.73595 276.841 6.17676 268.893 6.17676C260.945 6.17676 254.502 8.73595 254.502 11.8985C254.508 12.4866 254.707 13.0565 255.067 13.5214C246.217 14.5097 240.256 16.3615 240.256 18.4872C240.256 21.6464 253.434 24.209 269.732 24.209C286.031 24.209 299.208 21.6464 299.208 18.4872C299.218 16.2505 292.519 14.2913 282.809 13.355Z" fill="#304FFE"/>
<path opacity="0.1" d="M106.301 19.5972C106.601 19.1699 106.767 18.6627 106.776 18.1407C106.776 14.9781 100.333 12.4189 92.3852 12.4189C84.4372 12.4189 77.9941 14.9781 77.9941 18.1407C78.0085 18.7321 78.2169 19.3023 78.5871 19.7636C69.7374 20.7519 63.7764 22.6037 63.7764 24.7294C63.7764 27.8885 76.9711 30.4512 93.2522 30.4512C109.533 30.4512 122.728 27.8885 122.728 24.7294C122.711 22.4927 116.011 20.5335 106.301 19.5972Z" fill="#304FFE"/>
<path opacity="0.1" d="M207.469 14.7911C208.277 14.323 209.369 14.7703 209.924 15.5263C210.479 16.2822 210.617 17.2601 210.774 18.1687C211.082 20.2216 211.308 22.5762 209.924 24.1193C212.185 17.2636 218.687 12.0134 225.876 11.2471" stroke="#304FFE" stroke-width="1.04032" stroke-miterlimit="10"/>
<path opacity="0.1" d="M91.8091 49.8078C92.3292 49.5061 93.0297 49.8078 93.3869 50.2794C93.705 50.7928 93.8931 51.3761 93.9348 51.9786C94.1325 53.2998 94.2816 54.8118 93.3904 55.7931C94.1509 53.5916 95.5149 51.6482 97.3267 50.1846C99.1386 48.721 101.325 47.7962 103.638 47.5156" stroke="#304FFE" stroke-width="1.04032" stroke-miterlimit="10"/>
<path opacity="0.1" d="M247.858 60.2101C248.378 59.9085 249.079 60.2101 249.436 60.6818C249.754 61.1952 249.942 61.7784 249.984 62.381C250.181 63.7022 250.33 65.2141 249.439 66.1955C250.2 63.994 251.564 62.0506 253.376 60.587C255.187 59.1234 257.374 58.1985 259.686 57.918" stroke="#304FFE" stroke-width="1.04032" stroke-miterlimit="10"/>
<path opacity="0.1" d="M235.065 176.808V168.381L238.949 172.265L239.92 171.259L234.371 165.711L228.823 171.259L229.794 172.227L233.678 168.381V176.808H235.065Z" fill="#304FFE"/>
<path opacity="0.1" d="M151.146 204.548V196.121L155.03 200.005L156.001 199L150.452 193.451L144.904 199L145.875 199.967L149.759 196.121V204.548H151.146Z" fill="#304FFE"/>
<path opacity="0.1" d="M212.871 229.169V220.742L216.755 224.626L217.726 223.621L212.178 218.072L206.629 223.621L207.6 224.588L211.484 220.742V229.169H212.871Z" fill="#304FFE"/>
</g>
<defs>
<linearGradient id="paint0_linear" x1="129.372" y1="94.6913" x2="129.372" y2="0.663443" gradientUnits="userSpaceOnUse">
<stop stop-color="#808080" stop-opacity="0.25"/>
<stop offset="0.54" stop-color="#808080" stop-opacity="0.12"/>
<stop offset="1" stop-color="#808080" stop-opacity="0.1"/>
</linearGradient>
<linearGradient id="paint1_linear" x1="26882.1" y1="58667.7" x2="31998.4" y2="58139" gradientUnits="userSpaceOnUse">
<stop stop-color="#808080" stop-opacity="0.25"/>
<stop offset="0.54" stop-color="#808080" stop-opacity="0.12"/>
<stop offset="1" stop-color="#808080" stop-opacity="0.1"/>
</linearGradient>
<clipPath id="clip0">
<rect width="395" height="271.836" fill="white" transform="translate(0.00439453 0.664062)"/>
</clipPath>
</defs>
</svg>
